/* XPM */
static char *_8a571dd64384550ea1d0e5349681dd3BYlARaaKF5NwdO9j[] = {
/* columns rows colors chars-per-pixel */
"64 64 65 1 ",
"  c None",
". c #010100",
"X c #0C0C0A",
"o c #11110F",
"O c #141412",
"+ c #191916",
"@ c #1E1E1A",
"# c #22221D",
"$ c #252521",
"% c #292924",
"& c #2F2E29",
"* c #34342E",
"= c #373730",
"- c #3B3B34",
"; c #3F3F38",
": c #403F38",
"> c #424139",
", c #4C4C43",
"< c #515147",
"1 c #55554A",
"2 c #59594E",
"3 c #5D5D52",
"4 c #605F54",
"5 c #626156",
"6 c #67675A",
"7 c #6B6B5E",
"8 c #6E6D60",
"9 c #737365",
"0 c #777769",
"q c #787769",
"w c #7B7B6C",
"e c #807F70",
"r c #838272",
"t c #888777",
"y c #888877",
"u c #8E8D7C",
"i c #91917F",
"p c #959582",
"a c #999886",
"s c #9D9D8A",
"d c #A1A18D",
"f c #A6A692",
"g c #ABAB96",
"h c #AEAD98",
"j c #B0AF99",
"k c #B3B29D",
"l c #B6B6A0",
"z c #B8B7A1",
"x c #BCBCA5",
"c c #C0BFA8",
"v c #C3C2AA",
"b c #C8C7AF",
"n c #C8C8AF",
"m c #CDCCB3",
"M c #D0CFB6",
"N c #D0D0B6",
"B c #D4D4BA",
"V c #D8D7BD",
"C c #DAD9BF",
"Z c #DDDCC2",
"A c #E0DFC4",
"S c #E3E2C6",
"D c #E6E5C9",
"F c #E8E7CB",
"G c #E9E8CC",
/* pixels */
"                                                                ",
"                                                      ...       ",
"                                                     ..X..      ",
"                                                    .X7fe@.     ",
"                                                    XtDGGh@.    ",
"                                                   .>ZFDDFaX    ",
"                                                   XfGDDDDS1.   ",
"                                                  .*ZDDDDDFfX   ",
"                                                  .9FDDDDDFm#   ",
"                                                  XhFDDDDDFC*   ",
"                                                  #NFDSFDDDA:   ",
"                                                  ,SDDDDDDDZ=   ",
"                                                 .9FDDDDDDFB&   ",
"                                                 XsGDDDDDDFcO   ",
"                                                 OxFDDDDDDGi.   ",
"                                                 $BDDDDDDDD1.   ",
"                                                .1SDDDSDDDm$    ",
"                                                .iGDDDDDDGjX    ",
"                                              ..%MDDDDDDDGp.    ",
"                                            ...OaFDDDDDDDGwO.   ",
"                                          ...o2lDDDDDDDDDDt6.   ",
"                                       ....+4kSDDDDDDDDDDDyg+   ",
"                                     ....%9xDDDDDDDDDDDDDDfB1.  ",
"                                   ...X;umFGDDDDDDDDDDDDDDAFfX  ",
"                                ...X$7kZDDDDDDDDDDDDDDDDDDDFZ;. ",
"                             ....X>aBDGDDDDDDDDSZADDDDDDDDDDGi. ",
"   ....                    ....$6hZGDDDDDDDDDSMlhkbZDDDDDDDDFM% ",
"  .X@O..                ....O<amDGDDDDDDDDDAmkgggggkmZDDDDDSDD4.",
" .+sMxq+..           ....O>tvSGFDDDDDDDDSCnjgggggggggkbZSDDSCb9.",
" .tGGGDk&.        ....o-wxZGGDDDDDDDDDSVvjgggghhggggggfjxvxxhh0X",
".%BDDDDGc*.   .....X=qlZGGDDDDDDDDDDSBxhggghgfy3=5ggggggggggghwX",
".7FDDDDDGv*.....O;qkZGGDDDDDDDDDDDSmxgghghgp5&X...7ggggggggggh8.",
".sGDDDDDDGv=X$1uvZFFDDDDDDDDDDDDZmkhgghhs0>O......X0hggggggggh1.",
"OxGDDSDDDDDMkMSGDFDDDDDDDDDDDDZbkggghgu2#X....    .Oqggggggggd$.",
"+vGDDDDDDDDDDDDDDDDDDDDDDDDDVvjggghdq-o....        .O0hhggggh6. ",
"OcDDDDDDDDDDDDDDDDDDDDDDDSBxggghgp3$X....           .X6fhhhhr+. ",
"XjGDDDDDDDDDDDDDDDDDDDFANxhfghfr,O....              ..X=qiy2o.  ",
".uGDDDDDDDDDDDDDDDDDDAmlhghhd0*X...                   ..XXX...  ",
".5DDDDDDDDDDDDDDDDDZnkhfhha6%....                      ......   ",
" &VDDDDDDDDDDDDDDZvkhfhga3#....                                 ",
" XgFDDDDDDDDDDDVxkgghhp1+....                                   ",
" .5DDSDDDDDDDSnjfghgu<O...                                      ",
"  #bGDDDDDDDCxhgjhu,O...                                        ",
"  .rGDDDDDDVkghgu,O...                                          ",
"  .=CFDDDDDxghp1O...                                            ",
"  X3xGDDDDCkhw+...                                              ",
"  #dkFSFDDmgh,..                                                ",
"  *zzFDDDDxgg=.                                                 ",
"  =MBDDDDZkgd%                                                  ",
"  -ADDDDFNggaO                                                  ",
"  >ADDDDDvghwX                                                  ",
"  :ADDDDZkgh3.                                                  ",
"  -ZDDDDmggf*.                                                  ",
"  *CDDDCkghuo                                                   ",
"  %BGDCxggh2.                                                   ",
"  OcZmkggga@.                                                   ",
"  Xwkggggh2.                                                    ",
"  .>ggggguO.                                                    ",
"   Ouhghs*.                                                     ",
"   .-aha>..                                                     ",
"   ..$-#..                                                      ",
"    .....                                                       ",
"     ...                                                        ",
"                                                                "
};
