/* XPM */
static char *_f9d347ca8024a5fb8663dd4561de4abOGO0YRZRThmbeM9I[] = {
/* columns rows colors chars-per-pixel */
"64 64 104 2 ",
"   c None",
".  c #0F1607",
"X  c #19250C",
"o  c #1B290D",
"O  c #1D2B0D",
"+  c #1D2C0E",
"@  c #1E2C0E",
"#  c #202F0F",
"$  c #21310F",
"%  c #233410",
"&  c #243511",
"*  c #253711",
"=  c #253811",
"-  c #263912",
";  c #273A12",
":  c #273B12",
">  c #283B12",
",  c #283C13",
"<  c #293C13",
"1  c #293D13",
"2  c #293E13",
"3  c #2A3E13",
"4  c #2A3E14",
"5  c #2A3F14",
"6  c #2B3F14",
"7  c #2B4014",
"8  c #2B4114",
"9  c #2C4114",
"0  c #2C4314",
"q  c #2C4215",
"w  c #2D4215",
"e  c #2D4315",
"r  c #2D4415",
"t  c #2D4515",
"y  c #2E4415",
"u  c #2E4515",
"i  c #2E4615",
"p  c #2F4615",
"a  c #2F4715",
"s  c #2F4716",
"d  c #2F4816",
"f  c #304816",
"g  c #304916",
"h  c #304A16",
"j  c #314A16",
"k  c #314B16",
"l  c #314C16",
"z  c #324C16",
"x  c #324D16",
"c  c #324E16",
"v  c #324E17",
"b  c #334E17",
"n  c #324F17",
"m  c #334F17",
"M  c #335017",
"N  c #335117",
"B  c #345217",
"V  c #345317",
"C  c #355317",
"Z  c #345417",
"A  c #355417",
"S  c #355517",
"D  c #355518",
"F  c #365418",
"G  c #365518",
"H  c #375518",
"J  c #355618",
"K  c #355718",
"L  c #365618",
"P  c #375618",
"I  c #365718",
"U  c #375718",
"Y  c #385718",
"T  c #365818",
"R  c #375818",
"E  c #365918",
"W  c #375918",
"Q  c #375A18",
"!  c #385918",
"~  c #395919",
"^  c #385A18",
"/  c #385B19",
"(  c #3A5B19",
")  c #395C19",
"_  c #395D19",
"`  c #3A5D19",
"'  c #3A5E19",
"]  c #3B5E19",
"[  c #3B5F19",
"{  c #3C5F1A",
"}  c #3C601A",
"|  c #3C611A",
" . c #3D611A",
".. c #3E611A",
"X. c #3D621A",
"o. c #3E621A",
"O. c #3E631A",
"+. c #3E641A",
"@. c #3F641A",
"#. c #3F651B",
"$. c #40651B",
"%. c #40661B",
"&. c #41661B",
"*. c #41671B",
/* pixels */
"                                                                                                                                ",
"                                                                                                                                ",
"                                                                                                                                ",
"                                                                                                                                ",
"                                                                                                                                ",
"                                                                                                                                ",
"                                                                                                                                ",
"                                                                                                                                ",
"                                                                                                                                ",
"                                                                                                                                ",
"                                                                *.    *.*.                                                      ",
"                                                          *.*.*.*.*.*.*.*.*.                                                    ",
"                                          *.*.*.    *.*.*.*.*.*.*.*.*.*.*.*.                                                    ",
"                                        *.*.*.*.*.*.*.*.*.*.*.*.*.*.*.*.*.*.                                                    ",
"                                        *.*.*.*.*.*.*.*.*.*.#.#.*.*.*.*.*.*.+.T T                                               ",
"                                      *.*.*.*.*.*.*.*.*.#.+.X.| +.*.*.*.*.*.} Z Z                                               ",
"                                      *.%.*.*.*.*.*.*.+.' R E R T ] O.*.%.#.I x k                                               ",
"                                    *.*.O.T O.+.*.*.+.| R R K R T T ] *.%.O.M k k k                                             ",
"                                  *.*.*.] T / ] +.#.E K R K R K T T %.%.%.] x k k k                                             ",
"                              *.*.*.*.*.] T T T +.#.E R R R K R T X.%.%.O.I k k k k x x         *.*.                            ",
"                            *.*.*.*.*.+.T T T T +.| R K R E R R ] #.*.*.O.M k k k k k x } *.*.*.*.*.I                           ",
"                    *.*.*.*.*.%.*.*.*.] T T T ] +.E K R K K R E ] #.%.#.T M x x k k k B *.*.#.+.] I k k                         ",
"                  *.*.*.*.*.#.#.%.%.#.] T T T } } K E K E R K E #.#.{ ] T T I x k k k Y *.*.} T B x k k                         ",
"              *.*.*.*.*.*.#.O.] O.*.+.] T T T T E K R R E K K } O.T I I T I I B x x m I #.#.T K x k k k                         ",
"            *.*.*.*.*.*.+.] I T } %.%./ T T T T T R R R R K E Q T T T T T T T T T I T } #.} T D x k k k                         ",
"          *.*.*.*.*.*.O.T T I T O.%.%./ T T T T T / R R E K R K T T T T T T T T T T ] #.+.T T D x k x x k k k k k k             ",
"          *.*.*.%.%.O.T T T T T { *.$.T Z T / ] } Q R K E R R K T T T T T T T T T T O.*.] T T x k M B M k k k k k k             ",
"            O.] O.O.T T T T T T / O.{ / R ] *.*.+.} } Q K R K R T T T T T T T T T O.*.*.] T T V M T T B k k k k k k             ",
"            T T T T T T T T T T R ] Y { *.*.*.*.#.#.} E K R R Z I T T T T T T T T #.*.*.] T T I T T T T m k k k k k k           ",
"            T T T T T T T T T T T Z I *.*.*.*.*.#.} R K E K R d x T T T T T T T T } *.#.] T T T T T T T I x k k k k k k         ",
"          I T T T T T T T T T T T V / *.O.O.O.O.] R K R R R K Z k I T T T T T T T ] #.] T I T T T T T T I m k k k k k k k       ",
"          B T T T T T T T T T T T V O.*./ / Z T R R R K K E E Z d V T T T T T T T O.#.T T T T T T T T T I x k k k k k k k       ",
"        d x I T T T T T T T T I I B +.} T T T T T T T T T I I V x V T T T T T T T O.+.T T T T T T T T T I m d d d t f k k k     ",
"          x x T T T T T T T T I M ] *.] T T T T T T T T T I I x x x T T T T T T T T ] T T T T T T T T T I m d e t t e f k k     ",
"          x x I I T T T T T T I m O.*.Q T T T T T T T T T T D x k M T T T T T T T T T T T T T T T T T T B x f e e e e t k k     ",
"          k x x V T T T T T T I m ] +.T T T T T T T T T T T I x x D T T T T T T T T T T T T T T T T T T I x t e e e e f k       ",
"          k k k x T T T I T T M k Y $./ T T T T T T T T T T I k M T T T T T T I T T T T T T T T T T T T I k e e e e e t t       ",
"          d k k x M D T I I M x k B { I T T T T T T T T T T V k D T T T T T D M T T T I T T T T T T T T V k t e e e e e t       ",
"            d x x x x D I I m k k / ] I T T T T T T T T T T M d V I T T T T M M T T I M T T T T T T T T V k e e e e e e e       ",
"            d d d d x M I B k k k / T T T T T T T T T T T T M x V T T I T M d x T T M M T T T T T T T I x k t e e e e e e e     ",
"            , t t g g b x x k k k b T T T T T T T T T T D M d x V T I x b x k k I I x M T T T T T T T I x k t e e e e e e e     ",
"              e e t g g k k k k k k Z T T T T T T T T T M x x x d V m x k k k k B x x M I I T T T T T I x f e e e e e e <       ",
"              , 7 t e k k g m k e k B I T T T T I D I I x x d d k k d x k f k k k k k x I I I I I I Z I k e e e e e             ",
"                  < 7 t k t f e e k b b T T T T I m m x d x x x k k x d e e t k k k k k m B B B x V B k e e e e e e             ",
"                      t e e e e e k k k Z R Z Z b k k k k k g t k d e & @ X , t t t t e k k k k k k k k t e e e <               ",
"                      < e e e e e k k k b Z V x k k k k k m t e t t %       O t e e 7 @ t d k k k t f t t 7                     ",
"                        - e e e e e e f k k k k k f f e t f e e e < .         , > e O   7 t t k t t e e <                       ",
"                          e e e e < e e t k f t t e e e e e e t 7                 O     - e e e 6 e < <                         ",
"                            -       7 e e e e e e e e e e < 7 7 -                         , < < & -                             ",
"                                      e e e t t e e e e -                                                                       ",
"                                      7 e t e < e t - %                                                                         ",
"                                      e <         <                                                                             ",
"                                                                                                                                ",
"                                                                                                                                ",
"                                                                                                                                ",
"                                                                                                                                ",
"                                                                                                                                ",
"                                                                                                                                ",
"                                                                                                                                ",
"                                                                                                                                ",
"                                                                                                                                ",
"                                                                                                                                ",
"                                                                                                                                ",
"                                                                                                                                "
};
