/* XPM */
static char *bede2141c4af4207b7a0b184bbab70abBDKwLC5ljQrROisX[] = {
/* columns rows colors chars-per-pixel */
"64 64 145 2 ",
"   c None",
".  c #211000",
"X  c #2E1800",
"o  c #371C00",
"O  c #553200",
"+  c #5B3600",
"@  c #5F3900",
"#  c #613100",
"$  c #643C00",
"%  c #693E00",
"&  c #733700",
"*  c #723E00",
"=  c #265D00",
"-  c #296400",
";  c #2C6C00",
":  c #366B00",
">  c #2F7100",
",  c #327500",
"<  c #3D7400",
"1  c #337B00",
"2  c #5E5500",
"3  c #5D5D00",
"4  c #604600",
"5  c #6D4100",
"6  c #674E00",
"7  c #6C4800",
"8  c #734500",
"9  c #7C4300",
"0  c #744C00",
"q  c #7A4900",
"w  c #675700",
"e  c #6E5100",
"r  c #655D00",
"t  c #6B5B00",
"y  c #725500",
"u  c #775800",
"i  c #7B5D00",
"p  c #4E6400",
"a  c #416800",
"s  c #496F00",
"d  c #546200",
"f  c #5B6E00",
"g  c #497700",
"h  c #407B00",
"j  c #567500",
"k  c #5E7B00",
"l  c #616600",
"z  c #6B6200",
"x  c #656F00",
"c  c #6E6D00",
"v  c #756200",
"b  c #7F6500",
"n  c #647700",
"m  c #6D7500",
"M  c #697E00",
"N  c #717C00",
"B  c #685835",
"V  c #785F3D",
"C  c #5B6262",
"Z  c #834300",
"A  c #8A4600",
"S  c #854B00",
"D  c #8D4C00",
"F  c #954A00",
"G  c #9A4C00",
"H  c #805100",
"J  c #8C5300",
"K  c #9C5300",
"L  c #975E00",
"P  c #945713",
"I  c #A14F00",
"U  c #A65000",
"Y  c #AD5200",
"T  c #A45A00",
"R  c #AA5900",
"E  c #B05600",
"W  c #B55C00",
"Q  c #AF6300",
"!  c #B56200",
"~  c #B96300",
"^  c #B46C00",
"/  c #BD6900",
"(  c #B77400",
")  c #BE6A18",
"_  c #81602D",
"`  c #8A6836",
"'  c #C26E00",
"]  c #C57300",
"[  c #C87600",
"{  c #CC7C00",
"}  c #86735A",
"|  c #A17E50",
" . c #368200",
".. c #3A8400",
"X. c #3A8B00",
"o. c #3E9400",
"O. c #448000",
"+. c #418E00",
"@. c #4C8800",
"#. c #538100",
"$. c #5A8400",
"%. c #5D8C00",
"&. c #4A9400",
"*. c #419C00",
"=. c #4F9E00",
"-. c #5B9400",
";. c #559B00",
":. c #5F9800",
">. c #638400",
",. c #6A8700",
"<. c #748700",
"1. c #6A9300",
"2. c #719800",
"3. c #44A300",
"4. c #4AA600",
"5. c #46AA00",
"6. c #49AD00",
"7. c #5CA100",
"8. c #4BB400",
"9. c #4DBB00",
"0. c #56B400",
"q. c #50BF00",
"w. c #64A500",
"e. c #6BB000",
"r. c #52C200",
"t. c #55CB00",
"y. c #56D100",
"u. c #58D100",
"i. c #5BDB00",
"p. c #60E600",
"a. c #62EB00",
"s. c #B78C38",
"d. c #B58533",
"f. c #CE8100",
"g. c #D18400",
"h. c #D68B00",
"j. c #918275",
"k. c #A99862",
"l. c #D29042",
"z. c #EEAC59",
"x. c #357CB3",
"c. c #518099",
"v. c #2F88D1",
"b. c #77B4E5",
"n. c #72B4ED",
/* pixels */
"                                                                                                                                ",
"                                                                                                                                ",
"                                                                                                                                ",
"          a.                        9.a.  p.                        u.r.u.a.p.    p.  r.u.                        a.a.  t.r.    ",
"9.u.r.  p.a.u.      6.6.r.t.t.u.  t.t.t.p.i.a.t.      3.      t.r.  t.i.8.p.i.t.y.i.y.9.p.y.  r.              t.r.p.i.i.9.t.y.  ",
"r.9.r.y.i.p.t.t.5.t.*.5.8.t.8.t.9.r.9.9.i.r.t.t.t.9.3.6.o.5.6.8.9.t.9.t.6.t.t.8.r.t.9.8.t.r.r.r.3.9.5.3.  5.r.t.t.i.9.i.4.t.q.9.",
"q.6.r.r.t.i.r.9.5.9.o.8.3.9.*.8.*.8.5.8.r.8.r.9.q.q.8.*.o.o.o.8.8.5.9.9.3.8.9.6.9.9.5.5.5.r.5.r.*.5.X.o.*.r.r.9.9.r.8.t.3.5.5.o.",
"6.*.8.3.6.9.q.3.5.3.*.8.o.3.X.3.o.3.o.5.8.*.9.9.5.9.8.X.3.X.o.3.6.3.8.o.3.5.4.3.5.5.3.3.o.8.3.5.o.*.X.*.o.9.8.5.9.6.3.8.3.o.3.X.",
"o.o.5.X.o.5.5.o.3.o.*.o.> o. .X.o.X. .X.o.o.9.o.o.3.o.> o.X.o.X.X.X.o. .X.o.X. . .X.o. .X.*. .o. .X.o. .X.*.5.X.6.6.o.o.X. .o.X.",
" .3.3., X.X.o. .X.o.*.1 ; > 1 1 X.1 > ; X.X.o.X. .1  .; 1 1  . . .>  .> > 1 > - - 1 1 > , , >  . . . .; > 1 1  .o.X. .1 ; >  .X.",
"; X.*.> ;  ., ; X.o.o.> - ; > > 1 > - = ; > 1 1 > - ; ; - ; ; > ; ; ; - > ; - - - - > > - ; ; ; > ; ; - - ; - , 1 1 > - - - 1  .",
"-  .X.> ; > ; - X.X. .1 > - ; - > - = = = ; ; > ; = = - - - - - - ; - - 1 ; - ; ; - 1 > - - ; - - - - - = = = ; > > - - = - ; > ",
"- > ; , - > - ; X. .; > ; - ; - ; - = = = = - - - = = = ; = = = = - = =  .1 ; > ; ;  .; = = = = - = = - = = = = - - = = = = - ; ",
"; ; - ; -  ., ; ; ; ; ; ; 1 ; ; ; ; = = = - = = = = = - - ; = - = = = ; 1  .; ; ; 1 X.1 - - - = - - - - - = = = = = - = = - ; > ",
"- ; ; ; > X.X.- - ; ; ; X.X.1 1 ; > ; > ; ; - ; > - - > > > > > ; > 1  .X.> ; ; ; ; > X.1 , ; ; , > > > ; - ; > - - ; ; > > ; ; ",
"- - ; ; ;  .> ; ; , >  . . . . .; > ; > ;  .;  . .- - ; 1 >  .X.; ;  . .X.> 1 ; > > 1 X. .1 ; , X., 1 , ; - ; X.> ,  .> ; ; > ; ",
"- ; 1 1 , > > 1 1 X.,  . . .o. .; > ; ; ; 1 1  ., = = - , ; 1 3.> = ;  . .1 > ; > 1 1 .., ; -  .3., ; > - = - 1 1 1 > ; ; ; > - ",
">  .1 .. .o.X.X. . . .X. .X.X.1 ; ; - ; - ;  .> - = - - - - X.4.; = - , > 1 > ; ; > 1 , ; = = ..5., - - - = = ;  .1 - ; ; - > ; ",
"1 1 : 1 *.*.3.o.1 1 X. .X.3.X.3...- : ; 1  . . ...- - ; - 1 *.X., = = - ; ; 1 X. .> - ; - = - 1 o.o.; - ; - ; X.1  ..., - , ; X.",
"O.< < &.-.0.7.&.h 1 O.&.7.0.0.0.3.X.< 1 &.=.4.=.6.3.&.+.O.o.*.*.*.X.+.1 ; 1 @.4.4.X., > ..+.+.*.o.o.o.X.&.&.4.6.&.4.;.X.< O.+.6.",
"1.c N e.<.e.M v n c m 2.2.2.e.1.1.M z %.7.:.e.,.,.1.N m ;.1.-.>.M M ,.n f 1.w.e.e.w.>.f ,.,.M >.-.-.:.%.m ,.1.N 2.w.1.7.M z >.1.",
"i S H H b b q 8 q q q i L H i H q q q y v v i 0 q H q q u i y 7 8 8 0 0 y v m n m N i 0 0 5 8 8 7 i i u q H S 8 u v z v 0 q S H ",
"q S H H q q q q q q q q t q 8 q q q q 8 q 5 q 8 5 q 8 q q q q 8 8 8 % q q q q 8 q q q S 8 % 8 8 0 q q q q q 8 $ q 0 5 q 8 q q q ",
"q q q q q q 5 q q q q 5 8 0 q q q q q q q 5 8 q 8 8 5 q 8 8 q 8 q 8 8 q q q q 5 8 q q q q 8 q q q q 8 8 8 5 q 8 q 5 8 q q q q q ",
"8 q q q q q % 8 8 8 % 8 8 q q q q q q 8 8 8 q 8 5 8 8 8 % % q 8 8 q 8 8 q q q 8 q S q q 5 q 8 8 8 8 5 5 8 8 5 8 8 q 8 8 8 q q q ",
"8 8 q q 8 8 5 8 5 5 $ $ 8 q 8 8 q 5 8 5 8 8 8 q % 5 $ @ 8 % $ 8 8 q q 8 q q q q q q 8 8 8 q q 8 5 @ 8 % @ 5 % 8 q 5 8 5 8 8 5 8 ",
"$ 5 q 8 8 5 $ % 5 5 % % 8 q q 9 5 5 5 9 Y W W W R 9 8 % $ $ $ % 8 8 q q S S D S S q q q q 8 8 % % $ $ $ 5 5 8 8 q % 8 8 % 5 % 8 ",
"$ q 8 8 5 5 @ + % % % $ % 8 9 * 9 9 9 R { g.g.g.f.' G 8 $ @ % % 9 G G T ] ] { ] ' _ B % 9 Z G q % $ + 5 8 5 8 9 9 q 8 8 $ % 5 5 ",
"8 q q 8 $ @ $ $ 5 $ 8 % $ % G ' ' Y Z W g.h.h.h.h.h.] A Z Z A Z K g.h.h.h.h.h.h.g.c.x.Z U ' z.] Y Y Y D 8 Z ! ] { g.9 q @ $ 8 % ",
"5 8 8 8 8 @ $ @ % % * Z Z Z W E Y F Y E { h.h.h.h.h.h.g.L & & & 9 ^ h.h.h.h.h.h.g.k.n.j.Y [ { { [ { { / W ~ f.h.W K Z 8 % 5 5 % ",
"5 5 $ q q 8 8 $ 5 $ Z Z Z Y I A F F Y Y E W g.h.h.h.h.% . . . . . o { h.h.h.h.h.h.s.n.j.) [ h.h.f.h.h.h.[ O ( h.] ] 9 % 8 8 8 @ ",
"$ 5 5 5 5 8 8 % S W ! W [ { { { { ~ Y Y Y Y E ' ] ' / . . . . . . . $ g.h.h.h.h.h.{ b.| ' { h.h.] / ' ' ' . O Z Z Z 8 8 5 8 $ $ ",
"$ 8 5 5 5 5 K ] ] / / Q J Z Z 9 Z Z Y Y Y Y Y Y Y Y U o . . . . . . # W W ~ ' h.h.{ n.} W [ { { ' Y Y Y Y & 8 5 5 8 8 % @ % % $ ",
"% % $ 8 K ] h.W I $ 5 5 $ 5 $ @ $ % % Y Y Y Y Y Y Y Y D X . . . . + Y Y E E { h.{ d.v.C A [ W [ E E Y G A Z q q 8 5 8 8 8 8 $ $ ",
"$ $ $ S / G G 8 % $ $ 8 $ 5 $ $ + + $ G Y Y Y Y E ] { { ' F % * Y Y Y Y Y ' h.h.{ ` V * * P l.W Z 9 Z 9 q q q 8 q 8 $ 8 5 $ + $ ",
"@ 8 q 5 9 8 % % % % 5 $ % % 8 5 + + $ Z Y Y Y Y W g.h.h.h.! * 9 A Y Y Y Y { h.{ W E E Y G G I G % @ + $ % $ 8 % 8 8 % % 8 $ + + ",
"@ 5 8 8 8 q 8 % $ $ $ $ 5 5 8 5 $ $ % % F I E Y Y / h.h.h.h.T 5 % G E E Y ' D $ $ $ $ $ Y Y Y I $ @ $ % $ $ $ 8 5 $ 8 5 8 $ $ $ ",
"@ $ 5 8 8 q 8 8 5 $ @ % 5 5 5 + $ + % * % * A Y Y W g.{ f.f.' F Z & A A A % % 8 8 5 % % $ % % $ $ $ $ 8 $ % 5 % $ $ 5 5 5 $ + $ ",
"$ 5 % 5 5 8 8 8 8 5 % % 5 5 5 $ + @ % $ % % % % % % * 8 * Z E E Z A * $ $ 8 8 q q 8 5 @ $ 8 8 8 $ % % 8 8 % 5 5 $ % 5 $ $ $ + @ ",
"$ 8 5 $ 8 q 8 5 8 % $ $ % 5 $ $ + @ @ $ $ % $ * % 8 8 5 8 % % * Z Z Z $ 5 8 q S S 8 8 % % % 5 8 % % 8 % 8 5 8 % 5 $ % $ @ @ + @ ",
"8 8 8 5 8 q 8 5 % + $ 5 $ 5 $ @ $ % 5 % $ + $ 5 5 8 q 8 8 8 5 % % & % % 8 8 q 8 8 q 8 8 5 % 5 % 5 5 8 5 8 q 8 5 5 + @ $ 5 8 $ $ ",
"8 5 8 8 8 5 % 8 $ $ 8 5 % 8 8 % 8 5 8 % $ $ $ 8 8 q 8 q q q 8 5 @ % % % 8 q q 8 8 q 8 5 % % $ $ 8 q q q 8 q q 8 5 $ % $ 5 5 5 8 ",
"8 8 8 q 8 8 5 % $ 8 8 5 % 8 5 % 5 % % 5 $ % 5 5 5 8 5 5 q q q 8 $ $ % O $ 8 8 5 8 8 8 @ @ $ $ % 8 q q 8 5 8 8 5 5 5 % $ 5 % 5 5 ",
"8 q q q q q 8 % $ 8 8 8 5 8 q 8 8 q 8 % @ 5 % 5 q 8 $ $ 5 q 8 5 $ % 8 8 8 5 $ @ @ @ 8 8 5 8 $ $ 8 8 q $ $ 5 8 8 $ 5 $ @ 5 8 q 8 ",
"e 5 8 0 q 8 q 8 q q 0 i 0 8 q 8 q q 8 y % $ $ $ 6 e 7 5 q 8 5 $ % y 0 8 8 5 $ % $ 5 8 5 0 y 6 % 5 5 8 8 8 7 e $ % $ % 5 y 8 q q ",
"r e 7 y 8 q q 7 0 y y m q 0 q 7 0 0 c l 0 5 7 5 w l w e y 6 4 7 e c v u e e 5 @ @ 7 e y v c v 0 6 4 e y e t l 6 5 4 5 y x t 0 q ",
"n w 3 z 0 0 6 w t z t ,.y y i 6 w l >.r y 6 t e w z c x w 4 2 0 t c c m m w $ 5 5 4 t m m c z 6 y 4 e l x c 3 t e w 6 t l >.t 6 ",
"%.x f 3 w 6 2 w l n d -.z v <.z x j k d r 3 z m m M ,.f l 7 t e m c 1.M M t 6 6 w 6 c M ,.,.m c y 6 w f x 1.c M u f w l d $.f m ",
"@.j j d d 2 d 3 s j g :.n z 1.k $.g g h d p x %.>.-.>.f f 2 n r 2.N w.n $.z z 3 3 z x #.,.-.<.,.w l 2 j f 7.k :.k f p p a @.g $.",
"h < O.g < s a p < g h -.j m %.#.O...< < : g $.;.-.4.:.O.O.f %.n w.>.;.$.@.f s s s f j &.$.;.,.7.k %.j O.#.7.&.;.-.#.h : < < ..@.",
", , 1 > , < : a , 1 < @.$.;.O.&.< +.1 ..; ..@.;.&.+.4.1 ..@.;.&.@.g ..O.< , : < < : < O.< O.g &.@.&.O.1 X.;.X.&.4.@., , ......@.",
"< > ; > > - ; : , , 1 h < O.1 +.1 ..1 1 ;  ...+.1 , *.- 1 +.+.1 1 - ; < - ; ; : - : - ; 1 ; ; 1 +.o.+., , X.1 X.+...: , < 1 ....",
"> > ; ; - = - - ; - , , 1 1 1 1 ; ; ; 1 > > 1 1 ; ; 1 = .... .; = ; - - - - = ; - = - - - - ; - , ..X.> - 1 - > ,  .; , > ; ; ; ",
"1 ; - ; - - - = - - ; > , > 1 ; - - - ; - ; 1 > = - - = 1 1 ; - - ; ; - - - = - - - - - ; ; ; - - > 1 ; - ; = - > , - ; ; - - = ",
"> - - - - - = - > = - ; ; > ; ; - = - ; - - > ; = = = = - = = ; , - ; - ; ; - - - - ; = - - ; > - = - - = = = = > > = - - = - - ",
"- - = - = - - - ; - - - - > ; ; = = = - - = ; ; = = = = = = = ; ; ; - = - - ; - - - ; - - ; ; ; - = = = = = = = ; - = ; - = = - ",
"; - - - ; - - - - ; - - - ; ; - = = ; > ; = - ; - - ; - = = - ; ; , - - ; - ; - ; ; - ; = - > ; ; = = = ; - = ; ; - - ; ; ; = = ",
" . .1 - ; - > - ;  .; ; - ; - - = - X. .; - ; - - 1 o.1 = = - ; ; ; - 1 > - ; ; ; ; -  .; ; ; ; - = = = o.o.; ; ; ; - > X.1 = = ",
"3.o.X.> ; - ; > X.o. .> - - = = - > *.*.1 1  .> 1 o.3.o.; = = - - >  .*.X. .> - - > X.X.o.1 ; - - = - 1 o.o.X.> 1 1 1  .*.o.- = ",
"t.8.6.*.1 > 1 X.5.8.3.3.1 ; ; > > o.8.6.o.X.o.1 X.o.o.9.5.X.1 ; ;  .8.6.6.3.X.X. .o.8.8.8.3.1 ; ; 1 o.5.8.3.o.X.1 o.X.3.8.6.1 > ",
"                                                                    r.                    9.                                    ",
"                                                                                                                                ",
"                                                                                                                                ",
"                                                                                                                                "
};
