/* XPM */
static char *cd67accb2fe64880b1a1b204313264f2NFUOa4puEXBjp8jT[] = {
/* columns rows colors chars-per-pixel */
"64 64 215 2 ",
"   c None",
".  c #2C2B27",
"X  c #3C2B23",
"o  c #342C25",
"O  c #67140B",
"+  c #6B130C",
"@  c #6A1D0D",
"#  c #7C0D12",
"$  c #7E1609",
"%  c #59281F",
"&  c #582C15",
"*  c #5A3218",
"=  c #49301D",
"-  c #6C280F",
";  c #62291D",
":  c #782D13",
">  c #742C15",
",  c #643413",
"<  c #6C3B12",
"1  c #723516",
"2  c #723718",
"3  c #743C16",
"4  c #422F29",
"5  c #463029",
"6  c #5B342B",
"7  c #7B3B2E",
"8  c #784415",
"9  c #526370",
"0  c #850B14",
"q  c #940519",
"w  c #9E021C",
"e  c #BE1A0D",
"r  c #AD0316",
"t  c #A3021A",
"y  c #A90318",
"u  c #B40415",
"i  c #BB0412",
"p  c #B90A14",
"a  c #AA170F",
"s  c #88291C",
"d  c #942415",
"f  c #972717",
"g  c #99341E",
"h  c #86370F",
"j  c #B8220E",
"k  c #A82312",
"l  c #AA2308",
"z  c #993925",
"x  c #AE3622",
"c  c #BC3A25",
"v  c #B73C27",
"b  c #C5040E",
"n  c #CC040C",
"m  c #CC0D0E",
"M  c #DC0606",
"N  c #DF0E07",
"B  c #D30509",
"V  c #D40E0B",
"C  c #DB0E09",
"Z  c #C21A0B",
"A  c #C9180A",
"S  c #DD1405",
"D  c #D31409",
"F  c #D71608",
"G  c #C50D11",
"H  c #C20610",
"J  c #E40E06",
"K  c #EB0E03",
"L  c #E50603",
"P  c #F20E00",
"I  c #E51204",
"U  c #ED1203",
"Y  c #ED1D04",
"T  c #F41000",
"R  c #F61D02",
"E  c #FE1D00",
"W  c #F91600",
"Q  c #CA210B",
"!  c #D72207",
"~  c #C13A10",
"^  c #E62407",
"/  c #FD2303",
"(  c #F82908",
")  c #F53713",
"_  c #C23D28",
"`  c #864D18",
"'  c #8A4E1A",
"]  c #8D521B",
"[  c #93561C",
"{  c #96591E",
"}  c #995B1E",
"|  c #8D4601",
" . c #AC5502",
".. c #A55200",
"X. c #B45502",
"o. c #B95602",
"O. c #B45A07",
"+. c #A65112",
"@. c #B9651A",
"#. c #925620",
"$. c #975A22",
"%. c #974B28",
"&. c #A8482A",
"*. c #B4482B",
"=. c #A75928",
"-. c #B94B31",
";. c #B85B36",
":. c #AC4C30",
">. c #9E612E",
",. c #A36222",
"<. c #A86424",
"1. c #BB6A22",
"2. c #B66E2B",
"3. c #BA702B",
"4. c #AB6A35",
"5. c #B46938",
"6. c #BB7438",
"7. c #C55A05",
"8. c #CB5E05",
"9. c #CE5D09",
"0. c #D05D08",
"q. c #EC431B",
"w. c #C36007",
"e. c #DA610A",
"r. c #D96608",
"t. c #CE6C18",
"y. c #E3660B",
"u. c #EB690B",
"i. c #E26504",
"p. c #F26C0C",
"a. c #EC6E15",
"s. c #EA7615",
"d. c #F47D17",
"f. c #F4710F",
"g. c #C5462E",
"h. c #C8452D",
"j. c #CE4B34",
"k. c #D44C32",
"l. c #DC4C33",
"z. c #C75837",
"x. c #D9522D",
"c. c #E84D24",
"v. c #E44F35",
"b. c #E35136",
"n. c #E05A37",
"m. c #E4592F",
"M. c #C7732E",
"N. c #D9742A",
"B. c #C46A33",
"V. c #DA683A",
"C. c #C77931",
"Z. c #C87A32",
"A. c #CB7D3C",
"S. c #C77635",
"D. c #D2732A",
"F. c #EA7A28",
"G. c #E4703B",
"H. c #BE7944",
"J. c #C87845",
"K. c #D47949",
"L. c #C66A43",
"P. c #E86543",
"I. c #E66744",
"U. c #E47347",
"Y. c #EB7F53",
"T. c #F18117",
"R. c #F68D1C",
"E. c #EB8919",
"W. c #D3833D",
"Q. c #D18230",
"!. c #FB9425",
"~. c #F58631",
"^. c #F2872E",
"/. c #A98256",
"(. c #818073",
"). c #CB834B",
"_. c #C5824A",
"`. c #DB8841",
"'. c #D88649",
"]. c #C98554",
"[. c #D38B54",
"{. c #DA8F52",
"}. c #DF8D5A",
"|. c #D48A56",
" X c #DE9153",
".X c #DD945C",
"XX c #DE9145",
"oX c #E08C47",
"OX c #E38C4D",
"+X c #F5924B",
"@X c #E58D58",
"#X c #E39557",
"$X c #E49659",
"%X c #E6985B",
"&X c #EA9A5C",
"*X c #EB915B",
"=X c #F59652",
"-X c #F7A152",
";X c #E49A62",
":X c #EE9F65",
">X c #E09760",
",X c #F69F61",
"<X c #EFA167",
"1X c #EFA168",
"2X c #F0A268",
"3X c #F4A164",
"4X c #F5AA74",
"5X c #F9B17E",
"6X c #4B7DA7",
"7X c #5E96BF",
"8X c #6493B1",
"9X c #77ACCD",
"0X c #94AEB1",
"qX c #8ABBD4",
"wX c #96C0D0",
/* pixels */
"                                                                                                                                ",
"                                                                                                                                ",
"                                                                                                                                ",
"                                                                                                                                ",
"                              U K K U T T T                                                                                     ",
"                          a e A D J U K T T T T T T T T T T T                                                                   ",
"                          V D A Z e e Z A F S I U T T T T T T W R W                                                             ",
"                        C C J J I I I I F D A e Z Z A F I U R E E E                                                             ",
"                      V C J C J J J U K P T T T U I S F Z F E / E E E                                                           ",
"                    V V V C C J J J J U K T T T T T T T W E E ^ Q E E E                                                         ",
"                    V V D C C J J J J K K T P T T T T T E E ) z.f k / E E                                                       ",
"                  m V V V C C C J J J U U K T T T T T W / / V.].:.d Q E E                                                       ",
"                m m V m V V C J J J J J U K P P T P W E / c.|.|.H.z d F E E                                                     ",
"              G G m m V V V V C C J J J K L K K K P W E ) ).:X:X_.6.z k ^ E E                                                   ",
"            G G G m m V V V C V C C B B M M L L K W E / V..X<X2X}._.5.d j / E E                                                 ",
"          G G G G m m m m m m n H n B B B M M L P E / x.).<X<X2X#X{.].:.f A E E                                                 ",
"          G G G p p i u u u i i b b n n B M M L E E c.K.{.<X<X<X.X%X.XJ.g d Y E E                                               ",
"        p p y w w t t y r u u i i b b n B B M W E ( K.}. X<X<X2X#X%X1X).5.g k ( E E                                             ",
"      w w w w w w w t t r u u i b b b n B B U E / V..X&X X<X<X<X#X%X1X.XJ.5.f j E /                                             ",
"    w w w w w w w w t t y r u u i i b n n N E E c.|.:X;X X<X<X<X$X%X1X$X}.].&.d ! E E                                           ",
"  w w w w w w w w w w t t r r u i i H H B R E ) J.%X1X%X X1X:X2X#X%X2X%X$X.XJ.z f ^ E E                                         ",
"w w w w w w w w w w w t t r r u u i H n U E / K.[.2X1X&X X1X2X2X#X%X1X%X$X1X[.=.f j R E /                                       ",
"# q w w w w w w w w w w t r r r u i i C E E m.|.#X:X2X&X#X:X2X2X#X%X1X%X$X1X X6.=.f Q E E                                       ",
"  @ # q w w w w w w w w t t r r u i n R E q.).;X$X1X1X;X X:X:X2X#X%X<X%X$X1X%XA.A.x d ! E E                                     ",
"  O O O # q w t w w w w w t y r r i U E ( A.%X:X#X<X<X%X}.:X:X2X#X%X2X$X$X2X$XW.oX-.d f ^ E E                                   ",
"      O O + # q w w w w w t t r u V E / x.[.1X<X#X<X1X&X}.1X:X:X$X%X1X$X$X2X$X`.oXB.d d j E E                                   ",
"          O + + 0 q w w w w t y G E / q.S..X<X:X.X<X1XK.-.z.I.I.U.*X2X%X$X2X$XW.oX      d Q E                                   ",
"            : @ O + 0 q w w w r Y E ^ 3.6.#X<X:X#X<XL.v l.b.b.b.b.G.*X%X$X2X%XW.oX          ^                                   ",
"            $.8 1 @ O + 0 q w C E / +.5.J.%X<X<X#X'.x l.l.-.%.v k.v.n.#X$X2X%XW.oX                                              ",
"            3.$.` 8 1 @ + + a E E c #.6.`.&X<X<X@X:.j.b.z o . o s h.b.U.$X2X%XW.oX                                              ",
"            Z.<.,.$.8 8 - @ $ Y ! ] [ W.oX&X2X<XJ.c v.z . . . . X s h.b.#X2X%XW.oX                                              ",
"            Z.<.,.,.} ] 8 3 - l h 8 #.W.oX&X2X<X5._ k.5 . . . . . % x v.*X2X%XW.oX                                              ",
"            C.<.,.,.} ,.] ` 8 < < ` #.W.oX&X:X:X-.l.&.. . . . . . o f l.Y.2X;XK.oX                                              ",
"            C.<.<.,.} } [ [ ` 8 8 [ $.A.oX%X1X:X-.k.7 . . . . . . . > _ U.2X%XW.oX                                              ",
"            Z.<.,.<.} ,.[ } ] ` ` 2.M.'.oX&X1X;X-.l.6 . . . . . . . ; _ I.:X%XW.oX                                              ",
"            Z.<.<.,.} ,.[ } ] ` ] 2.Z.`.oX&X1X>Xg.k.6 . . . . . . . % c I.3X&XW.oX                                              ",
"            Z.<.<.,.} ,.[ { ] ` ] 3.Z.`.oX&X2X@Xg.j.4 . . . . o . . % c P.<X%XW.oX                                              ",
"            Z.<.<.,.} ,.[ { ] ` [ 3.Z.`.oX&X2X@Xj.j.4 . . . . . . . % c P.<X%XW.oX                                              ",
"            Q.<.<.,.} ,.[ { ] ` ] 3.Z.`.oX&X1X.Xg.j.4 . . . . . . . % c P.:X%XW.oX                                              ",
"            C.<.,.<.} } [ { ] ` ] 3.C.`.oX;X2X@Xg.j.X . . . . . . . % _ P.:X&XW.oX                                              ",
"            Z.<.,.,.} ,.[ } ] ` ] 3.Z.`.oX&X2X@Xg.j.4 . . . . . . . % c P.:X%XW.oX                i.r.r.r.r.E.                  ",
"            Z.<.<.,.} ,.[ { ] ` [ 3.C.`.oX&X1X}.g.j.4 . . . . . . . % c P.:X%XW.oX              u.t.D.6.4.>.,.w.R.              ",
"            C.<.<.,.} ,.[ } ' ` ] 3.Z.`.oX&X1X.Xg.k.* o . . . . . . % c P.:X&XW.oX            r./.0XwXqX9X7X6X9 Q.              ",
"            C.<.,.,.} ,.[ } ] ` ] 3.Z.`.oX&X2X}.g.k.2 * X . . . . . % c P.:X$XW.oX            8./.0XwXwX9X7X8X(.Q.              ",
"            C.<.<.,.} } [ } ' ` ] 3.Z.`.oX&X2X@Xg.j.2 , , = o . . . % c P.:X$XW.oX            X.o.w.1.4.4.C.XX-Xd.u.            ",
"            C.<.<.,.} ,.[ { ] ` ] 3.Z.`.oX&X2X}.g.k.2 , , , * X . . & c P.:X&XW.oX            @.6.O.o.8.N.N.4X5X+Xa.            ",
"            C.<.<.,.} } [ } ] ` [ 3.Z.`.oX&X2X}.g.k.2 , , , , , = o % c P.:X$XW.oX            t._.@.o.Z..X%X4X4X2XF.            ",
"            Z.<.<.<.} ,.[ { ] ` ] 3.Z.`.oX&X1X}.g.k.2 , , , , , & = ; c P.:X%XW.oX          8.@.6.1.X.D.G.OX2X,X,X~.T.          ",
"            C.<.<.,.} ,.[ } ] ` ] 3.Z.`.oX&X2X}.g.k.2 , , , , , , , : c P.:X$XW.oX          8.M.6.O.O.t.{.oX=X=X<Xs.T.          ",
"            Z.<.<.,.} } [ { ' ` ] 3.Z.`.oX&X2X}.g.k.2 , , , , , , , : c P.:X%XW.oX        r.8.@.1. .O.M.`.G.~.+X=Xa.T.          ",
"              ,.<.,.{ ,.[ { ' ` [ 3.C.`.oX&X2X}.g.k.2 , , , , , , , : c P.:X%XW.oX        w.r.o.+. .o.t.D.N.F.~.F.d.R.d.        ",
"                  ,.} ,.[ { ] ' ] 3.Z.`.oX&X2X}.g.k.2 , , , , , , , : c P.1X%XW.oX        X.w.w.X. .X.7.9.e.F.~.~.!.d.y.        ",
"                    { ,.[ { ] ` ] 3.Z.`.oX&X2X}.g.k.3 , , , , , , , : c P.:X%XW.oX         . .O.8.7.7.7.0.y.^.!.!.d.u.e.        ",
"                      } [ } ' ` ] 3.Z.`.oX&X2X}.g.k.1 , , , , , , , : c P.:X XW.oX           ...X.7.9.e.s.s.T.d.f.p.u.          ",
"                        ` } ] ` [ 3.C.`.oX&X2X}.g.k.3 , , , , , , , : c n.    4.6.          | .. .o.7.9.0.y.u.p.f.u.            ",
"                          8 ` ` ] 3.Z.`.oX&X2X}.g.k.3 * , , , , , , > c k.                      ..X.7.9.e.e.u.u.e.              ",
"                              ` ] 3.Z.`.oX&X2X}.h.k.3 , , , , &       z                                                         ",
"                                ] 3.Z.`.oX&X1X}.h.k.1 &                                                                         ",
"                                  3.C.`.oX X].  *.l.                                                                            ",
"                                  2.C.`.oX                                                                                      ",
"                                      W.                                                                                        ",
"                                                                                                                                ",
"                                                                                                                                ",
"                                                                                                                                "
};
