/* XPM */
static char *_d85ccb6da524377918d9da9b63d4f2duzj3remLrJUaz1Ay[] = {
/* columns rows colors chars-per-pixel */
"64 64 193 2 ",
"   c None",
".  c #563300",
"X  c #5A3600",
"o  c #5C3700",
"O  c #5E3800",
"+  c #5F3900",
"@  c #613A00",
"#  c #623B00",
"$  c #633B00",
"%  c #643B00",
"&  c #643C00",
"*  c #653C00",
"=  c #663D00",
"-  c #683E00",
";  c #693E00",
":  c #693F00",
">  c #6A3F00",
",  c #245A00",
"<  c #265C00",
"1  c #265D00",
"2  c #275F00",
"3  c #286100",
"4  c #286300",
"5  c #296300",
"6  c #296400",
"7  c #2A6600",
"8  c #2A6700",
"9  c #2B6800",
"0  c #2C6900",
"q  c #2C6A00",
"w  c #2C6B00",
"e  c #2C6C00",
"r  c #2D6C00",
"t  c #2D6D00",
"y  c #2D6E00",
"u  c #2E6F00",
"i  c #366B00",
"p  c #2E7000",
"a  c #2E7100",
"s  c #2F7100",
"d  c #2F7300",
"f  c #307400",
"g  c #317600",
"h  c #317700",
"j  c #347400",
"k  c #377700",
"l  c #3D7400",
"z  c #327900",
"x  c #327A00",
"c  c #337B00",
"v  c #367A00",
"b  c #337C00",
"n  c #347D00",
"m  c #5E5500",
"M  c #5D5D00",
"N  c #604600",
"B  c #694100",
"V  c #6B4000",
"C  c #6C4000",
"Z  c #6C4100",
"A  c #6D4100",
"S  c #6E4100",
"D  c #6F4200",
"F  c #684600",
"G  c #6E4500",
"H  c #674E00",
"J  c #6C4800",
"K  c #704200",
"L  c #704300",
"P  c #714300",
"I  c #724400",
"U  c #734400",
"Y  c #744500",
"T  c #754600",
"R  c #764600",
"E  c #704800",
"W  c #724C00",
"Q  c #764D00",
"!  c #784800",
"~  c #794800",
"^  c #7A4900",
"/  c #7B4900",
"(  c #7C4A00",
")  c #7F4C00",
"_  c #675700",
"`  c #6E5100",
"'  c #655D00",
"]  c #6B5B00",
"[  c #725500",
"{  c #775800",
"}  c #7B5D00",
"|  c #4E6400",
" . c #416800",
".. c #496F00",
"X. c #546200",
"o. c #5B6E00",
"O. c #497700",
"+. c #407B00",
"@. c #567500",
"#. c #5E7B00",
"$. c #616600",
"%. c #6E6100",
"&. c #686400",
"*. c #656F00",
"=. c #6D6900",
"-. c #6F6F00",
";. c #756200",
":. c #7F6500",
">. c #647700",
",. c #6D7500",
"<. c #697E00",
"1. c #717C00",
"2. c #805100",
"3. c #358000",
"4. c #358100",
"5. c #378000",
"6. c #368400",
"7. c #378400",
"8. c #3C8000",
"9. c #388700",
"0. c #3C8400",
"q. c #388900",
"w. c #398900",
"e. c #398A00",
"r. c #3F8900",
"t. c #3A8C00",
"y. c #3B8F00",
"u. c #3C9200",
"i. c #3D9400",
"p. c #3D9500",
"a. c #3E9400",
"s. c #418100",
"d. c #478000",
"f. c #418E00",
"g. c #4C8800",
"h. c #538100",
"j. c #5A8400",
"k. c #5D8C00",
"l. c #4B9000",
"z. c #4A9700",
"x. c #419800",
"c. c #409C00",
"v. c #419D00",
"b. c #419E00",
"n. c #4F9E00",
"m. c #5E9200",
"M. c #589600",
"N. c #559B00",
"B. c #5F9800",
"V. c #638400",
"C. c #6A8700",
"Z. c #748700",
"A. c #6A9300",
"S. c #719800",
"D. c #43A300",
"F. c #44A000",
"G. c #44A400",
"H. c #45A600",
"J. c #45A700",
"K. c #4AA600",
"L. c #45A800",
"P. c #46A900",
"I. c #47AA00",
"U. c #47AB00",
"Y. c #47AD00",
"T. c #4AAB00",
"R. c #48AE00",
"E. c #5CA100",
"W. c #49B100",
"Q. c #4AB200",
"!. c #4AB400",
"~. c #4BB600",
"^. c #4CB800",
"/. c #4CB900",
"(. c #4EBD00",
"). c #4FBE00",
"_. c #4FBF00",
"`. c #56B400",
"'. c #64A500",
"]. c #6BB000",
"[. c #50C000",
"{. c #50C200",
"}. c #52C700",
"|. c #54CA00",
" X c #54CB00",
".X c #56D000",
"XX c #5AD900",
"oX c #5ADA00",
"OX c #5BDD00",
"+X c #5FE500",
"@X c #60E600",
"#X c #60E800",
"$X c #61EA00",
/* pixels */
"                                                                                                                                ",
"                                                                                                                                ",
"                                                                                                                                ",
"          $X                        ^.#X  @X                        .X[..X#X+X    +X  {..X                        #X#X   X[.    ",
"_..X[.  #X#X X      I.I.[. X X X   X X}.@XoX@X X      H.      |._.  |.OX~.+XoX X XOX.X^.@X X  _.              |.{.+XoXOX^. X X  ",
"[.^.|. XoX#X X XI. Xv.H.^.}.Q. X^.[.^._.XX_. X}. X^.H.I.a.H.I.~.^.|._. XY. X XQ._.|._.W. X_.[.}.I.^.I.D.  I.{.|.}.oX_.oXY. X_.^.",
"_.R._._. XoX_.^.H.^.c.Q.D._.v.Q.p.~.I.Q.}.Q._._._._.Q.v.a.a.p.~.Q.Y.~.^.D.~._.Y.~._.H.Q.Q._.H._.p.Y.y.p.v._._._._._.~.}.D.I.H.v.",
"Y.c.~.D.T._._.D.I.D.c.R.u.D.y.D.a.D.p.H.~.v.~.~.I._.Q.q.v.q.p.D.Y.H.Q.p.v.H.T.v.G.Y.v.v.v.Q.v.Y.a.p.q.v.a._.~.H.~.I.I.~.p.a.D.7.",
"y.v.T.y.c.T.Y.a.D.u.c.y.f y.7.t.u.q.7.9.v.a.~.c.a.G.v.z u.q.u.y.y.q.c.n q.c.9.n 3.y.c.n q.v.3.a.q.q.u.7.q.p.D.u.Y.Y.a.a.9.7.a.q.",
"n b.D.f 3.y.u.3.y.u.D.z 0 f z n y.d a t 9.9.x.y.3.f n 9 z 3.3.n 7.a n j a n j 4 9 n f t z z f 9.4.n 4.t d z n 4.a.y.9.n t a n y.",
"t t.v.a t n f t q.a.a.f 9 0 j t n j 4 4 0 f n n z 3 t 9 9 t t a a a 6 6 z 0 4 6 6 4 f f 6 0 t t a e e 9 9 9 6 z n z d 6 6 6 f 3.",
"9 n q.d 9 j a 6 q.y.3.z a 6 0 6 f 6 2 < 2 6 a t 6 2 3 3 6 2 6 4 6 e 3 3 z t 6 9 0 6 z t 2 6 t 4 9 3 3 6 3 3 2 e t a 6 2 2 4 t f ",
"9 j t f 6 d 9 9 q.3.t f 6 6 9 4 t 4 2 , < 2 6 2 3 , 2 2 6 2 3 3 2 3 2 2 n z 9 f a 0 3.d 2 2 4 < 4 2 2 3 2 , , 3 4 4 2 < < 2 6 t ",
"0 t 6 9 6 n d 9 0 0 a 6 t n a a 9 9 2 < < 4 2 2 3 , 2 3 9 9 2 2 2 2 3 9 n 7.a 0 0 z 7.z 4 2 2 2 3 4 6 9 3 2 2 2 < < 2 2 2 4 9 a ",
"4 t t 6 d u.q.4 4 i t t y.q.f 3.0 f e t 0 t 4 0 f 6 6 d t f a j 6 a n 3.7.a 0 t t 9 z q.n z t t a a a a i 4 0 f 4 6 a 0 a a a t ",
"4 6 a t e 4.d 9 p x t 7.7.3.n 9.a a 9 j t 7.t q.n 6 4 a n d n q.t t 3.7.q.f z t j d z y.n n 0 f u.z z f 0 4 t q.f z n a t 0 f t ",
"6 j n f j f f f n q.f 7.n 9.a.3.t f 6 a 0 n f 3.j 2 2 6 j 9 3.H.t 3 t n 7.n d 9 a z n q.f 0 2 7.D.j e a 4 2 4 z z z j 9 9 9 f 9 ",
"t z z 9.9.y.u.q.3.3.3.u.7.9.q.z t t 4 t 6 t 9.f 6 < 2 4 4 9 0.T.t < 4 j f f a a t a z z t 2 < 9.T.f 6 4 4 2 2 0 3.n 0 0 9 6 t a ",
"+.n a z c.D.D.f.z n q.3.f.D.y.D.n 4 i t z 3.3.7.n 9 9 0 6 f c.y.d 3 4 9 9 9 n q.3.a 9 9 9 2 4 n x.y.t 4 t 4 t 9.n 7.l j 6 a 9 u.",
"O.l +.l.M.`.E.l.s.k s.z.B.`.`.`.D.f.l n z.n.H.N.T.D.z.f.t.x.x.x.x.t.f.v t z g.K.K.t.a i 0.f.f.c.x.x.u.f.l.z.K.R.z.K.K.f.l d.f.T.",
"A.&.1.S.Z.].A.=.*.-.,.S.S.S.].A.A.>.&.k.E.B.].C.C.A.1.,.B.B.k.k.<.<.C.>.o.m.'.].].'.V.o.<.C.<.V.k.m.B.k.,.C.A.1.S.'.B.E.<.&.V.A.",
"} ) 2.:.2.2.2.! ! ) ) } :.2.} 2.2.) ^ [ ;.;.} Q ^ 2.) ^ { } [ J R I E Q Q ;.1.*.,.1.} ( Q G J R G } } { ) ) ) R { ;.&.} W 2.) 2.",
"2.2.2.2.^ ! ^ ^ ^ ^ R ) { ( R ^ ^ ) R R ^ A ^ K ; ^ R ^ ^ ^ ^ R I R ; ^ ) ^ R I R ^ ^ ) K A R R R ^ ^ ^ ^ ! R = ! R K ) K ! ^ ) ",
"/ / ) ) ! ^ A ^ ^ ! R G I ! ! ^ ! ^ ) ^ ^ A R ^ R R ; R R R ^ R R R R ^ ) ^ ^ G I ^ ^ ) ! R R R ^ ^ R R I A R R ! K K ! ) ) ! R ",
"U R ) ! ^ ! ; I R I A K R ! ! ^ ^ ) ! K R R R R K R R A A A ^ I R ^ R A ^ ^ ^ R R ) ^ R A ! ^ I I R A V A ^ K K R ! R R I ) ! ) ",
"U U ) ! R R A A K A = = R ^ R R K K K K U U K ^ ; A = + K ; $ I I ^ ^ I ^ ^ ^ ) ^ ) ^ R R ^ R R A $ K ; + A > K ! K R A A I A I ",
"% > ! U I A = ; A A = A R R R I A A A V R > K ! R A K V + = $ ; K R ! ^ R R R ) ^ R R R ! R R A V $ = $ A A K R ! ; K R ; A > K ",
"; ! ! K A A + X ; = V $ A I R A A A = $ ! K U ! ^ V I I = X ; A A I I R = R ^ ! ^ ^ A V R K A A V & o A K K K ! ! K R K $ A A A ",
"K ! ! R = o % $ V & R I A A I A ; I X A R A ! ! ) ^ R I I K I I V = = K A K I R R A K I ; = = K K K A I R R ^ 2.^ I A ^ + % K ; ",
"> R R R K o % o V V ^ R o V A I A K ; A K A > R R R I I R ^ ^ A V = = V A A V R K V A A ; = ; A I ) ^ R I I R R I A K I ; A I ; ",
"> K = ! ) K R ; V A R I $ ; V = $ K I R A A K U I ^ R R $ R ! I A V ; = = = X & + + ; = ; ; A A I ) A ; R R ^ I I I ; A I I A $ ",
"; K = A A R K o = = = = = ; = A % A A A R A A ! V R ^ I R R R R A V A R ; $ + . . $ $ A I A A A ! R R I R ^ A G R ; R I A A = = ",
"= I K A A V ; A V ; ; ; = ; ; = $ K ; + K K A I G K I I R R I A V V = ; + & X o X $ $ + V = A V A R I R I R A A A K I ; + I = & ",
"; = = I ^ V A A ; = A V $ A = + $ A K G I I I R ! ! R R R I I A A ; $ X + + . = + . $ X o = A A A R I R R R ^ ^ R I I A K I ; $ ",
"= = V K ^ R A A V $ = I = A = & o X ; I A ; ! I R ^ ! R A I V A K = + + + ; o $ X $ = + o $ = K ; A A R ! ^ ! R R R = R A & X $ ",
"$ A I V A R V ; = ; ; = ; A A A X + = R V V R I A K = V & o + V A $ X = = = ; V V = = ; $ X ; A = $ X = A = K A I I ; A I $ X X ",
"X A I I I R K A = % = $ A A I K $ $ ; I A A = A A $ + ; ; o + ; A V ; & V + ; V A $ $ ; & A A A = X $ V = + $ A A = K A I = $ = ",
"+ = A R R ^ R R A $ + ; I A A X $ X A A A ; = = > > ; % I + & & I R A & V A I R R A A = = I I A $ $ = I $ V V A $ ; V G A = X $ ",
"& A ; K A R R K I V A ; V V A & X + = = ; A = = I ; A K K A ; ; I R A & & R R ^ ^ R A + = K I K = V A A I ; A A = = V = = $ X + ",
"= K A $ K ^ R A R V + & ; A & $ X + o $ & ; = A A I I A A I ; A I = V ; V I ^ ) ) R K V V ; A I ; ; R V I K I V ; = ; $ + + X + ",
"R G I A ^ ^ R A ; X $ A ; V & $ % V I V $ X $ A A R ^ I I R A ; A V A A I R ! R R ^ K K A V V ; A A R A R ^ I K A X X = A K ; = ",
"R A I K R ; ; A = & I A ; I K V A A A A = $ = I R ^ R ^ ^ ^ I A + ; A ; I ^ ! I R ^ R A ; A = $ K R ^ ^ R ^ ^ I A $ ; = A A A A ",
"R R K ^ ^ K K ; ; I K A ; I A ; I ; ; A & V A A V I A V R ) R I = $ = . V I R A K R R + + = $ V R ^ ^ I A I I ; A A ; = A = A K ",
"R R ^ ^ ^ ^ I V & A R R A R ^ I R ^ I = + V V V ^ I ; $ A ^ R A + A K A I V + + $ + I K A A = $ I R ^ = $ V R R ; A = X A R ^ R ",
"` G R Q ^ R R R ^ ^ Q { Q ^ ! R ^ ^ E ` ; ; & ; H J J K ^ I G = V [ Q R A G = ; = V G A Q [ ` = V G R R A J ` = V $ A F ` R ^ ^ ",
"' H J [ R ^ ^ F Q [ [ ,.Q W ! G Q W -.&.J V F G m &.] ` [ F N J ` -.;.{ ` ` V X + J ` [ ;.=.;.E H N ` [ ` ] $.H G N V ` *.%.Q R ",
"*._ M %.Q W H _ ' %.] C.Q [ } H _ &.j.' [ H ] ` ' &.-.>.' F ' E ] =.-.,.-._ = G G N %.,.,.-.&.` [ N ` o.*.-.M ] ` _ W ] $.V.] H ",
"k.*.o.M _ H m _ o.*.X.B.%.%.Z.&.*.@.#.M ' M &.,.-.<.C.o.$.F ] J ,.-.A.<.<.] H H H H =.<.C.C.,.=.[ H J o.*.A.=.1.%.$.m $.X.j.o.,.",
"g.@.h.X.X.m X.M ..@...B.>.%.A.#.h.d.O. .X.| >.m.V.m.V.@.o.M *.' S.1.'.>.j.] &.M M ;.>.h.C.A.Z.C.' $.m @.o.E.#.B.#.o.| |  .g.O.k.",
"l l s.O.l ..i X.l O.+.M.@.,.k.h.g.l l l i g.j.N.M.n.A.+.O.@.k.#.'.V.N.j.g.o...O...o.@.g.j.N.C.E.#.k.@.s.h.E.z.N.m.h.l i l l 7.g.",
"j j v j j l i  .j n 7.g.@.M.d.z.0.f.z 0.9 0.g.N.z.f.I.z 0.g.N.l.g.O.7.s.0.i i l l i l s.v s.O.z.g.N.d.j t.N.f.z.n.g.j j 0.7.0.g.",
"z a 6 a j 6 0 i i d k +.s.f.k y.v q.f n t 3.0.0.7.f a.0 n f.y.3.j 6 i k 4 9 9 i 6 i 9 0 z t 0 z t.u.y.j f u.f q.t.0.j j k 3.3.0.",
"f j 9 9 6 4 6 9 6 9 j f n d n z 0 0 i z t f z z 9 t v 4 n q.7.8 4 t 4 9 6 6 3 t 9 3 3 6 6 9 9 3 j 7.q.j 6 n 6 a f 7.t f j t 6 t ",
"f 0 9 9 4 4 4 4 0 4 a a j a z e 5 4 4 t 6 0 z d 2 4 4 4 z z i 4 9 0 t 4 4 4 3 3 3 3 4 4 9 t t 9 6 d z a 3 9 2 9 j z 6 0 9 3 6 3 ",
"j 4 4 9 4 4 2 6 j 2 9 9 9 d a 6 4 2 4 6 6 4 z e < , < 2 9 4 2 0 f 6 0 2 9 9 9 4 9 6 t 3 3 9 0 f 4 3 6 6 2 < , 2 a a 2 6 6 2 6 6 ",
"6 3 3 6 4 2 4 6 t 2 6 6 6 a t a 4 < 2 9 9 2 0 9 2 , , < < , < 0 0 t 6 2 6 9 9 6 9 6 9 3 2 e t t 6 2 , , 2 , , 3 9 6 2 9 4 2 2 3 ",
"0 6 4 4 0 4 9 6 6 t 6 6 9 t e 9 2 2 e t 9 3 6 t 6 2 9 4 , , 6 t t f 4 4 0 4 t 9 0 t 4 t 2 6 f t 9 2 , , e 6 3 0 t 6 2 9 a 0 2 2 ",
"9.7.n 4 t 4 a 9 9 3.a e 6 9 3 2 < 6 q.7.6 9 e 9 6 f D.n , < 6 t 0 t 6 z f 6 j 6 a 9 6 3.t 9 9 t e 3 , 3 u.a.9 6 9 t 4 a y.n < , ",
"v.c.q.f 0 6 0 a q.a.7.d 3 9 3 , 2 a v.v.n n 4.a n a.v.u.a 2 2 6 6 t 3.v.y.7.t 6 9 d q.y.u.z 9 6 4 3 3 z u.p.q.a z z z 4.D.y.6 2 ",
" XR.I.v.z z z q.I.W.L.p.z 9 e f a a.~.I.i.q.u.z q.i.v.~.Y.q.z 0 0 q.~.R.H.I.q.q.3.u.Q.R.~.H.z 0 e d a.Y.Q.D.v.q.z a.q.I.Q.I.z f ",
"                                                                    _.                    {.                                    ",
"                                                                                                                                ",
"                                                                                                                                ",
"                                                                                                                                "
};
